<?xml version="1.0" standalone="no"?><!DOCTYPE svg PUBLIC "-//W3C//DTD SVG 1.1//EN" "http://www.w3.org/Graphics/SVG/1.1/DTD/svg11.dtd"><svg xmlns="http://www.w3.org/2000/svg" viewBox="0 0 400 400" version="1.1"><clipPath id="box"><rect x="0" y="0" width="400" height="400" style="fill:none;stroke:none;" /></clipPath><g clip-path="url(#box)"><rect x="0.00" y="0.00" width="400.00" height="400.00" style="fill:#FFFFFF;stroke:none;" /><path d="M0.00 381.00 L400.00 381.00 M0.00 345.00 L400.00 345.00 M0.00 309.00 L400.00 309.00 M0.00 272.00 L400.00 272.00 M0.00 236.00 L400.00 236.00 M0.00 200.00 L400.00 200.00 M0.00 163.00 L400.00 163.00 M0.00 127.00 L400.00 127.00 M0.00 90.00 L400.00 90.00 M0.00 54.00 L400.00 54.00 M0.00 18.00 L400.00 18.00 M18.00 0.00 L18.00 400.00 M54.00 0.00 L54.00 400.00 M90.00 0.00 L90.00 400.00 M127.00 0.00 L127.00 400.00 M163.00 0.00 L163.00 400.00 M200.00 0.00 L200.00 400.00 M236.00 0.00 L236.00 400.00 M272.00 0.00 L272.00 400.00 M309.00 0.00 L309.00 400.00 M345.00 0.00 L345.00 400.00 M381.00 0.00 L381.00 400.00 " style="fill:none;stroke:#D0D0D0;stroke-width:1;" /><path d="M200.00 0.00 L200.00 400.00 " style="fill:none;stroke:#000000;stroke-width:1;" /><path d="M196.00 418.18 L204.00 418.18 M196.00 381.82 L204.00 381.82 M196.00 345.45 L204.00 345.45 M196.00 309.09 L204.00 309.09 M196.00 272.73 L204.00 272.73 M196.00 236.36 L204.00 236.36 M196.00 200.00 L204.00 200.00 M196.00 163.64 L204.00 163.64 M196.00 127.27 L204.00 127.27 M196.00 90.91 L204.00 90.91 M196.00 54.55 L204.00 54.55 M196.00 18.18 L204.00 18.18 " style="fill:none;stroke:#000000;stroke-width:1;" /><path d="M0.00 200.00 L400.00 200.00 " style="fill:none;stroke:#000000;stroke-width:1;" /><path d="M-18.18 196.00 L-18.18 204.00 M18.18 196.00 L18.18 204.00 M54.55 196.00 L54.55 204.00 M90.91 196.00 L90.91 204.00 M127.27 196.00 L127.27 204.00 M163.64 196.00 L163.64 204.00 M200.00 196.00 L200.00 204.00 M236.36 196.00 L236.36 204.00 M272.73 196.00 L272.73 204.00 M309.09 196.00 L309.09 204.00 M345.45 196.00 L345.45 204.00 M381.82 196.00 L381.82 204.00 " style="fill:none;stroke:#000000;stroke-width:1;" /><text x="205" y="384.31818181818187" text-anchor="start" style="font:10px Droid Sans,Trebuchet MS,Arial,Helvetica,sans-serif;stroke:none;fill:#000000">-1</text><text x="205" y="347.9545454545455" text-anchor="start" style="font:10px Droid Sans,Trebuchet MS,Arial,Helvetica,sans-serif;stroke:none;fill:#000000">-0.8</text><text x="205" y="311.5909090909091" text-anchor="start" style="font:10px Droid Sans,Trebuchet MS,Arial,Helvetica,sans-serif;stroke:none;fill:#000000">-0.6</text><text x="205" y="275.2272727272728" text-anchor="start" style="font:10px Droid Sans,Trebuchet MS,Arial,Helvetica,sans-serif;stroke:none;fill:#000000">-0.4</text><text x="205" y="238.86363636363637" text-anchor="start" style="font:10px Droid Sans,Trebuchet MS,Arial,Helvetica,sans-serif;stroke:none;fill:#000000">-0.2</text><text x="205" y="202.50000000000006" text-anchor="start" style="font:10px Droid Sans,Trebuchet MS,Arial,Helvetica,sans-serif;stroke:none;fill:#000000">0</text><text x="205" y="166.13636363636368" text-anchor="start" style="font:10px Droid Sans,Trebuchet MS,Arial,Helvetica,sans-serif;stroke:none;fill:#000000">0.2</text><text x="205" y="129.77272727272734" text-anchor="start" style="font:10px Droid Sans,Trebuchet MS,Arial,Helvetica,sans-serif;stroke:none;fill:#000000">0.4</text><text x="205" y="93.40909090909096" text-anchor="start" style="font:10px Droid Sans,Trebuchet MS,Arial,Helvetica,sans-serif;stroke:none;fill:#000000">0.6</text><text x="205" y="57.04545454545459" text-anchor="start" style="font:10px Droid Sans,Trebuchet MS,Arial,Helvetica,sans-serif;stroke:none;fill:#000000">0.8</text><text x="205" y="20.681818181818237" text-anchor="start" style="font:10px Droid Sans,Trebuchet MS,Arial,Helvetica,sans-serif;stroke:none;fill:#000000">1</text><text x="18.18181818181816" y="213" text-anchor="middle" style="font:10px Droid Sans,Trebuchet MS,Arial,Helvetica,sans-serif;stroke:none;fill:#000000">-1</text><text x="54.54545454545451" y="213" text-anchor="middle" style="font:10px Droid Sans,Trebuchet MS,Arial,Helvetica,sans-serif;stroke:none;fill:#000000">-0.8</text><text x="90.90909090909086" y="213" text-anchor="middle" style="font:10px Droid Sans,Trebuchet MS,Arial,Helvetica,sans-serif;stroke:none;fill:#000000">-0.6</text><text x="127.27272727272721" y="213" text-anchor="middle" style="font:10px Droid Sans,Trebuchet MS,Arial,Helvetica,sans-serif;stroke:none;fill:#000000">-0.4</text><text x="163.63636363636357" y="213" text-anchor="middle" style="font:10px Droid Sans,Trebuchet MS,Arial,Helvetica,sans-serif;stroke:none;fill:#000000">-0.2</text><text x="199.99999999999994" y="213" text-anchor="middle" style="font:10px Droid Sans,Trebuchet MS,Arial,Helvetica,sans-serif;stroke:none;fill:#000000">0</text><text x="236.36363636363632" y="213" text-anchor="middle" style="font:10px Droid Sans,Trebuchet MS,Arial,Helvetica,sans-serif;stroke:none;fill:#000000">0.2</text><text x="272.72727272727263" y="213" text-anchor="middle" style="font:10px Droid Sans,Trebuchet MS,Arial,Helvetica,sans-serif;stroke:none;fill:#000000">0.4</text><text x="309.09090909090907" y="213" text-anchor="middle" style="font:10px Droid Sans,Trebuchet MS,Arial,Helvetica,sans-serif;stroke:none;fill:#000000">0.6</text><text x="345.45454545454544" y="213" text-anchor="middle" style="font:10px Droid Sans,Trebuchet MS,Arial,Helvetica,sans-serif;stroke:none;fill:#000000">0.8</text><text x="381.8181818181817" y="213" text-anchor="middle" style="font:10px Droid Sans,Trebuchet MS,Arial,Helvetica,sans-serif;stroke:none;fill:#000000">1</text><path d="M381.82 200.00 L381.82 200.00 L381.81 198.18 L381.78 196.36 L381.74 194.55 L381.67 192.73 L381.59 190.91 L381.49 189.10 L381.37 187.28 L381.24 185.47 L381.08 183.66 L380.91 181.85 L380.72 180.04 L380.51 178.23 L380.28 176.43 L380.04 174.63 L379.78 172.83 L379.50 171.03 L379.20 169.24 L378.88 167.45 L378.55 165.66 L378.19 163.88 L377.82 162.10 L377.44 160.32 L377.03 158.55 L376.61 156.78 L376.17 155.02 L375.71 153.26 L375.23 151.50 L374.74 149.75 L374.23 148.01 L373.70 146.27 L373.15 144.53 L372.59 142.81 L372.01 141.08 L371.41 139.37 L370.80 137.65 L370.16 135.95 L369.51 134.25 L368.85 132.56 L368.17 130.87 L367.47 129.20 L366.75 127.53 L366.02 125.86 L365.27 124.21 L364.50 122.56 L363.72 120.92 L362.92 119.28 L362.10 117.66 L361.27 116.04 L360.42 114.43 L359.56 112.83 L358.68 111.24 L357.79 109.66 L356.87 108.08 L355.95 106.52 L355.00 104.97 L354.05 103.42 L353.07 101.89 L352.08 100.36 L351.08 98.84 L350.06 97.34 L349.03 95.84 L347.98 94.36 L346.91 92.88 L345.84 91.42 L344.74 89.97 L343.63 88.52 L342.51 87.09 L341.38 85.67 L340.23 84.27 L339.06 82.87 L337.88 81.48 L336.69 80.11 L335.49 78.75 L334.27 77.40 L333.03 76.07 L331.79 74.74 L330.53 73.43 L329.26 72.13 L327.97 70.84 L326.67 69.57 L325.36 68.31 L324.04 67.06 L322.70 65.83 L321.36 64.61 L320.00 63.40 L318.62 62.21 L317.24 61.03 L315.85 59.87 L314.44 58.71 L313.02 57.58 L311.59 56.45 L310.15 55.35 L308.70 54.25 L307.23 53.17 L305.76 52.11 L304.28 51.06 L302.78 50.02 L301.28 49.00 L299.76 48.00 L298.24 47.01 L296.70 46.03 L295.16 45.07 L293.60 44.13 L292.04 43.20 L290.47 42.29 L288.89 41.39 L287.30 40.51 L285.70 39.64 L284.09 38.80 L282.47 37.96 L280.85 37.15 L279.21 36.35 L277.57 35.56 L275.93 34.79 L274.27 34.04 L272.61 33.31 L270.94 32.59 L269.26 31.89 L267.57 31.21 L265.88 30.54 L264.19 29.89 L262.48 29.25 L260.77 28.64 L259.05 28.04 L257.33 27.46 L255.60 26.89 L253.87 26.35 L252.13 25.82 L250.39 25.30 L248.64 24.81 L246.88 24.33 L245.12 23.87 L243.36 23.43 L241.59 23.00 L239.82 22.60 L238.04 22.21 L236.26 21.83 L234.48 21.48 L232.69 21.15 L230.90 20.83 L229.11 20.53 L227.31 20.25 L225.51 19.98 L223.71 19.73 L221.91 19.51 L220.10 19.30 L218.30 19.10 L216.49 18.93 L214.67 18.77 L212.86 18.64 L211.05 18.52 L209.23 18.42 L207.42 18.33 L205.60 18.27 L203.78 18.22 L201.96 18.19 L200.14 18.18 L198.33 18.19 L196.51 18.22 L194.69 18.26 L192.87 18.32 L191.06 18.40 L189.24 18.50 L187.43 18.62 L185.61 18.75 L183.80 18.90 L181.99 19.08 L180.18 19.26 L178.38 19.47 L176.57 19.70 L174.77 19.94 L172.97 20.20 L171.18 20.48 L169.38 20.78 L167.59 21.09 L165.80 21.43 L164.02 21.78 L162.24 22.15 L160.46 22.53 L158.69 22.94 L156.92 23.36 L155.16 23.80 L153.40 24.26 L151.64 24.73 L149.89 25.22 L148.15 25.73 L146.41 26.26 L144.67 26.80 L142.94 27.37 L141.22 27.95 L139.50 28.54 L137.79 29.16 L136.09 29.79 L134.39 30.43 L132.69 31.10 L131.01 31.78 L129.33 32.48 L127.66 33.19 L125.99 33.92 L124.34 34.67 L122.69 35.44 L121.05 36.22 L119.41 37.02 L117.79 37.83 L116.17 38.66 L114.56 39.51 L112.96 40.37 L111.37 41.25 L109.78 42.14 L108.21 43.05 L106.64 43.98 L105.09 44.92 L103.54 45.88 L102.01 46.85 L100.48 47.84 L98.96 48.84 L97.46 49.86 L95.96 50.89 L94.48 51.94 L93.00 53.00 L91.54 54.08 L90.08 55.17 L88.64 56.28 L87.21 57.40 L85.79 58.53 L84.38 59.68 L82.98 60.84 L81.59 62.02 L80.22 63.21 L78.86 64.42 L77.51 65.64 L76.17 66.87 L74.85 68.11 L73.53 69.37 L72.23 70.64 L70.95 71.93 L69.67 73.22 L68.41 74.53 L67.16 75.85 L65.93 77.19 L64.71 78.54 L63.50 79.89 L62.30 81.27 L61.12 82.65 L59.96 84.04 L58.81 85.45 L57.67 86.87 L56.54 88.30 L55.43 89.74 L54.34 91.19 L53.26 92.65 L52.19 94.12 L51.14 95.61 L50.10 97.10 L49.08 98.60 L48.07 100.12 L47.08 101.64 L46.11 103.18 L45.15 104.72 L44.20 106.27 L43.27 107.84 L42.36 109.41 L41.46 110.99 L40.58 112.58 L39.71 114.18 L38.86 115.78 L38.03 117.40 L37.21 119.02 L36.41 120.65 L35.62 122.29 L34.85 123.94 L34.10 125.60 L33.37 127.26 L32.65 128.93 L31.95 130.61 L31.26 132.29 L30.59 133.98 L29.94 135.68 L29.30 137.38 L28.69 139.09 L28.09 140.81 L27.50 142.53 L26.94 144.26 L26.39 145.99 L25.86 147.73 L25.34 149.48 L24.85 151.22 L24.37 152.98 L23.91 154.74 L23.46 156.50 L23.04 158.27 L22.63 160.04 L22.24 161.82 L21.86 163.59 L21.51 165.38 L21.17 167.16 L20.85 168.95 L20.55 170.75 L20.27 172.54 L20.00 174.34 L19.75 176.14 L19.52 177.95 L19.31 179.75 L19.12 181.56 L18.94 183.37 L18.79 185.18 L18.65 186.99 L18.53 188.81 L18.42 190.62 L18.34 192.44 L18.27 194.26 L18.22 196.07 L18.19 197.89 L18.18 199.71 L18.19 201.53 L18.21 203.35 L18.26 205.16 L18.32 206.98 L18.39 208.80 L18.49 210.61 L18.61 212.43 L18.74 214.24 L18.89 216.05 L19.06 217.86 L19.25 219.67 L19.45 221.48 L19.68 223.28 L19.92 225.08 L20.18 226.88 L20.46 228.68 L20.75 230.47 L21.07 232.27 L21.40 234.05 L21.75 235.84 L22.12 237.62 L22.50 239.40 L22.90 241.17 L23.32 242.94 L23.76 244.70 L24.22 246.46 L24.69 248.22 L25.18 249.97 L25.69 251.71 L26.22 253.45 L26.76 255.19 L27.32 256.92 L27.90 258.64 L28.49 260.36 L29.11 262.07 L29.74 263.78 L30.38 265.48 L31.04 267.17 L31.72 268.86 L32.42 270.54 L33.14 272.21 L33.87 273.87 L34.61 275.53 L35.38 277.18 L36.16 278.82 L36.95 280.46 L37.77 282.08 L38.59 283.70 L39.44 285.31 L40.30 286.91 L41.18 288.51 L42.07 290.09 L42.98 291.67 L43.90 293.23 L44.84 294.79 L45.80 296.33 L46.77 297.87 L47.76 299.40 L48.76 300.92 L49.78 302.42 L50.81 303.92 L51.85 305.41 L52.92 306.88 L53.99 308.35 L55.08 309.80 L56.19 311.25 L57.31 312.68 L58.44 314.10 L59.59 315.51 L60.75 316.91 L61.93 318.30 L63.12 319.67 L64.32 321.03 L65.54 322.38 L66.77 323.72 L68.01 325.05 L69.27 326.36 L70.54 327.66 L71.82 328.95 L73.12 330.23 L74.43 331.49 L75.75 332.74 L77.08 333.97 L78.43 335.20 L79.79 336.41 L81.16 337.60 L82.54 338.78 L83.93 339.95 L85.34 341.10 L86.75 342.24 L88.18 343.37 L89.62 344.48 L91.07 345.58 L92.53 346.66 L94.00 347.73 L95.49 348.78 L96.98 349.82 L98.48 350.84 L100.00 351.85 L101.52 352.84 L103.05 353.82 L104.60 354.78 L106.15 355.72 L107.71 356.65 L109.28 357.57 L110.86 358.47 L112.45 359.35 L114.05 360.22 L115.66 361.07 L117.27 361.91 L118.89 362.73 L120.52 363.53 L122.16 364.31 L123.81 365.08 L125.47 365.84 L127.13 366.58 L128.80 367.30 L130.47 368.00 L132.16 368.69 L133.85 369.36 L135.54 370.01 L137.25 370.65 L138.96 371.26 L140.67 371.87 L142.39 372.45 L144.12 373.02 L145.85 373.57 L147.59 374.10 L149.34 374.62 L151.08 375.11 L152.84 375.60 L154.60 376.06 L156.36 376.50 L158.13 376.93 L159.90 377.34 L161.67 377.73 L163.45 378.11 L165.24 378.46 L167.02 378.80 L168.81 379.12 L170.60 379.43 L172.40 379.71 L174.20 379.98 L176.00 380.23 L177.80 380.46 L179.61 380.67 L181.42 380.87 L183.23 381.04 L185.04 381.20 L186.85 381.34 L188.66 381.46 L190.48 381.57 L192.30 381.65 L194.11 381.72 L195.93 381.77 L197.75 381.80 L199.57 381.82 L201.38 381.81 L203.20 381.79 L205.02 381.75 L206.84 381.69 L208.65 381.61 L210.47 381.52 L212.28 381.40 L214.10 381.27 L215.91 381.12 L217.72 380.95 L219.53 380.77 L221.33 380.56 L223.14 380.34 L224.94 380.10 L226.74 379.84 L228.54 379.56 L230.33 379.27 L232.12 378.96 L233.91 378.63 L235.70 378.28 L237.48 377.91 L239.25 377.53 L241.03 377.13 L242.80 376.71 L244.56 376.27 L246.32 375.82 L248.08 375.35 L249.83 374.86 L251.57 374.35 L253.32 373.83 L255.05 373.28 L256.78 372.72 L258.51 372.15 L260.22 371.55 L261.94 370.94 L263.64 370.32 L265.34 369.67 L267.04 369.01 L268.72 368.33 L270.40 367.63 L272.08 366.92 L273.74 366.19 L275.40 365.45 L277.05 364.68 L278.69 363.91 L280.33 363.11 L281.96 362.30 L283.57 361.47 L285.18 360.63 L286.79 359.77 L288.38 358.89 L289.96 358.00 L291.54 357.09 L293.11 356.17 L294.66 355.23 L296.21 354.28 L297.75 353.31 L299.28 352.32 L300.80 351.32 L302.30 350.31 L303.80 349.28 L305.29 348.23 L306.77 347.17 L308.23 346.09 L309.69 345.00 L311.13 343.90 L312.57 342.78 L313.99 341.65 L315.40 340.50 L316.80 339.34 L318.19 338.17 L319.56 336.98 L320.93 335.78 L322.28 334.56 L323.62 333.33 L324.94 332.09 L326.26 330.83 L327.56 329.56 L328.85 328.28 L330.13 326.99 L331.39 325.68 L332.64 324.36 L333.88 323.02 L335.10 321.68 L336.31 320.32 L337.51 318.95 L338.69 317.57 L339.86 316.18 L341.01 314.78 L342.15 313.36 L343.28 311.93 L344.39 310.49 L345.49 309.04 L346.57 307.58 L347.64 306.11 L348.69 304.63 L349.73 303.14 L350.76 301.64 L351.77 300.12 L352.76 298.60 L353.74 297.07 L354.70 295.53 L355.65 293.98 L356.58 292.41 L357.50 290.84 L358.40 289.26 L359.28 287.68 L360.15 286.08 L361.00 284.47 L361.84 282.86 L362.66 281.24 L363.46 279.61 L364.25 277.97 L365.02 276.32 L365.78 274.67 L366.52 273.01 L367.24 271.34 L367.94 269.66 L368.63 267.98 L369.30 266.29 L369.96 264.59 L370.60 262.89 L371.22 261.18 L371.82 259.46 L372.41 257.74 L372.97 256.02 L373.53 254.28 L374.06 252.55 L374.58 250.80 L375.08 249.05 L375.56 247.30 L376.02 245.54 L376.47 243.78 L376.90 242.01 L377.31 240.24 L377.70 238.47 L378.08 236.69 L378.44 234.91 L378.78 233.12 L379.10 231.33 L379.40 229.54 L379.69 227.74 L379.96 225.94 L380.21 224.14 L380.44 222.34 L380.65 220.54 L380.85 218.73 L381.03 216.92 L381.19 215.11 L381.33 213.29 L381.46 211.48 L381.56 209.67 L381.65 207.85 L381.72 206.03 L381.77 204.22 L381.80 202.40 L381.82 200.58 " style="fill:none;stroke:#0080cc;stroke-width:1;" /></g></svg>